<svg width="56" height="56" viewBox="0 0 56 56" fill="none" xmlns="http://www.w3.org/2000/svg">
<rect x="0.707107" y="28" width="38.598" height="38.598" transform="rotate(-45 0.707107 28)" fill="url(#paint0_radial_51_339)" stroke="#710000"/>
<path d="M22.1267 22.2089C20.591 23.7631 19.7345 25.8629 19.7452 28.0477C19.7559 30.2326 20.6329 32.3239 22.1837 33.863C23.7345 35.402 25.8325 36.2629 28.0173 36.2569C30.2022 36.2509 32.2954 35.3785 33.8378 33.831M36.1097 29.523C36.3578 28.203 36.2799 26.8424 35.8827 25.5594C35.4855 24.2763 34.781 23.1097 33.8305 22.1608C32.8799 21.2119 31.7121 20.5094 30.4283 20.1144C29.1446 19.7193 27.7839 19.6437 26.4643 19.8941" stroke="white" stroke-width="2" stroke-linecap="round" stroke-linejoin="round"/>
<path d="M17.5215 17.4787C14.7302 20.2569 13.1568 24.0302 13.1475 27.9685C13.1382 31.9068 14.6938 35.6874 17.472 38.4788C20.2502 41.2701 24.0235 42.8435 27.9618 42.8528C31.9001 42.8621 35.6808 41.3065 38.4722 38.5283M41.249 34.712C42.6646 31.9225 43.1631 28.7572 42.6735 25.6676C42.1838 22.578 40.7309 19.7219 38.522 17.5069C36.3132 15.2918 33.4612 13.8309 30.373 13.3325C27.2848 12.8341 24.1181 13.3238 21.3246 14.7316M13.1509 13.1509L42.8494 42.8494" stroke="#FFC641" stroke-width="2" stroke-linecap="round" stroke-linejoin="round"/>
<defs>
<radialGradient id="paint0_radial_51_339" cx="0" cy="0" r="1" gradientUnits="userSpaceOnUse" gradientTransform="translate(19.799 47.799) rotate(90.0001) scale(19.799 19.3713)">
<stop offset="0.166567" stop-color="#EE8F00"/>
<stop offset="0.166667" stop-color="#BE0000"/>
<stop offset="0.502539" stop-color="#C80000"/>
<stop offset="0.798395" stop-color="#FF7A00"/>
<stop offset="0.798495" stop-color="#C70000"/>
</radialGradient>
</defs>
</svg>
