<svg width="56" height="56" viewBox="0 0 56 56" fill="none" xmlns="http://www.w3.org/2000/svg">
<rect x="0.707107" y="28" width="38.598" height="38.598" transform="rotate(-45 0.707107 28)" fill="url(#paint0_radial_42_44)" stroke="#128A01"/>
<path d="M27.9971 11.33C30.0038 11.33 31.9271 11.685 33.7088 12.3333L31.7171 14.3233C28.703 13.5037 25.5025 13.703 22.6133 14.8902C19.7242 16.0774 17.3082 18.186 15.7412 20.8881C14.1742 23.5902 13.5439 26.7343 13.9484 29.8316C14.3528 32.9289 15.7693 35.8057 17.9777 38.0148C20.186 40.2239 23.0624 41.6414 26.1596 42.0469C29.2567 42.4524 32.4011 41.8231 35.1037 40.257C37.8063 38.6909 39.9157 36.2757 41.1039 33.3869C42.292 30.4981 42.4924 27.2977 41.6738 24.2833L43.6638 22.2933C44.3294 24.1222 44.669 26.0537 44.6671 28C44.6671 37.2066 37.2038 44.67 27.9971 44.67C18.7905 44.67 11.3271 37.2066 11.3271 28C11.3271 18.7933 18.7905 11.33 27.9971 11.33ZM27.9971 18C28.8416 17.9996 29.6827 18.106 30.5005 18.3166V20.9283C28.8967 20.3609 27.1477 20.3556 25.5405 20.9132C23.9334 21.4709 22.5635 22.5583 21.6558 23.9971C20.7481 25.4359 20.3566 27.1405 20.5453 28.8311C20.7341 30.5218 21.4921 32.098 22.6948 33.3012C23.8974 34.5043 25.4734 35.2628 27.164 35.4522C28.8546 35.6416 30.5593 35.2506 31.9985 34.3435C33.4376 33.4363 34.5255 32.0669 35.0837 30.4599C35.642 28.8529 35.6373 27.1039 35.0705 25.5H37.6821C38.2035 27.5193 38.0805 29.6511 37.3303 31.5971C36.5801 33.5431 35.2402 35.2058 33.4982 36.3526C31.7562 37.4993 29.6993 38.0727 27.6152 37.9926C25.5312 37.9124 23.5244 37.1826 21.8757 35.9054C20.2269 34.6282 19.0188 32.8674 18.4203 30.8696C17.8218 28.8717 17.8629 26.7367 18.5379 24.7634C19.2129 22.7901 20.488 21.0772 22.1847 19.8645C23.8815 18.6517 25.9149 17.9998 28.0005 18H27.9971ZM31.3305 28C31.3302 28.7164 31.0992 29.4137 30.6716 29.9885C30.2439 30.5633 29.6425 30.9851 28.9564 31.1912C28.2702 31.3974 27.5359 31.377 26.8623 31.1331C26.1887 30.8892 25.6115 30.4347 25.2165 29.8371C24.8214 29.2394 24.6294 28.5304 24.6689 27.815C24.7084 27.0997 24.9773 26.4161 25.4358 25.8656C25.8944 25.3151 26.518 24.927 27.2144 24.7588C27.9108 24.5905 28.6429 24.6511 29.3021 24.9316L32.1688 22.065L32.1671 16.75C32.1674 16.4185 32.2993 16.1008 32.5338 15.8666L36.7005 11.7C36.8753 11.5254 37.0979 11.4065 37.3403 11.3583C37.5826 11.3102 37.8337 11.335 38.062 11.4295C38.2903 11.524 38.4854 11.684 38.6228 11.8894C38.7602 12.0948 38.8336 12.3362 38.8338 12.5833V17.1666H43.4171C43.6642 17.1668 43.9057 17.2403 44.111 17.3776C44.3164 17.515 44.4764 17.7101 44.571 17.9384C44.6655 18.1667 44.6902 18.4179 44.6421 18.6602C44.5939 18.9025 44.4751 19.1251 44.3005 19.3L40.1338 23.4666C39.8996 23.7011 39.5819 23.833 39.2505 23.8333H33.9338L31.0671 26.7C31.2371 27.1 31.3305 27.5383 31.3305 28ZM38.7321 21.3333L40.3988 19.6666H37.5821C37.2506 19.6666 36.9327 19.5349 36.6983 19.3005C36.4638 19.0661 36.3321 18.7481 36.3321 18.4166V15.6L34.6671 17.2666V21.235C34.7019 21.2663 34.7347 21.2997 34.7655 21.335H38.7321V21.3333Z" fill="#E4FF71" stroke="#128901"/>
<defs>
<radialGradient id="paint0_radial_42_44" cx="0" cy="0" r="1" gradientUnits="userSpaceOnUse" gradientTransform="translate(19.799 47.799) rotate(90) scale(19.799 21.0571)">
<stop offset="0.166567" stop-color="#22F303"/>
<stop offset="0.502539" stop-color="#118600"/>
<stop offset="0.504809" stop-color="#1CBF04"/>
<stop offset="0.798395" stop-color="#1CBF04"/>
<stop offset="0.799901" stop-color="#22F303"/>
</radialGradient>
</defs>
</svg>
