<svg width="35" height="26" viewBox="0 0 35 26" xmlns="http://www.w3.org/2000/svg">
<path d="M11.0003 20.3399L4.06029 13.3999C3.68634 13.026 3.17914 12.8159 2.65029 12.8159C2.12144 12.8159 1.61425 13.026 1.24029 13.3999C0.866336 13.7739 0.65625 14.2811 0.65625 14.8099C0.65625 15.0718 0.707828 15.3311 0.808038 15.573C0.908248 15.8149 1.05513 16.0347 1.24029 16.2199L9.60029 24.5799C10.3803 25.3599 11.6403 25.3599 12.4203 24.5799L33.5803 3.41991C33.9542 3.04595 34.1643 2.53876 34.1643 2.00991C34.1643 1.48106 33.9542 0.973866 33.5803 0.599911C33.2063 0.225955 32.6991 0.0158691 32.1703 0.0158691C31.6414 0.0158691 31.1342 0.225955 30.7603 0.599911L11.0003 20.3399Z" fill="white"/>
</svg>
