<svg class="svg-icon" viewBox="0 0 35 35" xmlns="http://www.w3.org/2000/svg" width="35" height="35">
  <path d="M27.708 5.833q0.627 0 1.042 0.416t0.416 1.042q0 0.615 -0.421 1.037L19.562 17.499 28.745 26.671q0.421 0.421 0.421 1.037 0 0.627 -0.416 1.042T27.708 29.166q-0.615 0 -1.037 -0.421L17.5 19.561 8.329 28.744q-0.421 0.421 -1.037 0.421 -0.627 0 -1.042 -0.416T5.834 27.707q0 -0.615 0.421 -1.037l9.183 -9.171L6.255 8.328q-0.421 -0.421 -0.421 -1.037 0 -0.627 0.416 -1.042t1.042 -0.416q0.615 0 1.037 0.421L17.5 15.438l9.171 -9.183q0.421 -0.421 1.037 -0.421z" fill="white"/>
</svg>
