<svg width="56" height="56" viewBox="0 0 56 56" fill="none" xmlns="http://www.w3.org/2000/svg">
<rect x="0.707107" y="28" width="38.598" height="38.598" rx="3.5" transform="rotate(-45 0.707107 28)" fill="url(#paint0_radial_51_352)" stroke="#128A01"/>
<path d="M27.9971 11.3301C30.0038 11.3301 31.9271 11.6851 33.7088 12.3334L31.7171 14.3234C28.703 13.5038 25.5025 13.7031 22.6133 14.8903C19.7242 16.0775 17.3082 18.1861 15.7412 20.8882C14.1742 23.5903 13.5439 26.7344 13.9484 29.8317C14.3528 32.929 15.7693 35.8059 17.9777 38.0149C20.186 40.224 23.0624 41.6415 26.1596 42.047C29.2567 42.4525 32.4011 41.8233 35.1037 40.2572C37.8063 38.691 39.9157 36.2758 41.1039 33.387C42.292 30.4983 42.4924 27.2978 41.6738 24.2834L43.6638 22.2934C44.3294 24.1223 44.669 26.0538 44.6671 28.0001C44.6671 37.2067 37.2038 44.6701 27.9971 44.6701C18.7905 44.6701 11.3271 37.2067 11.3271 28.0001C11.3271 18.7934 18.7905 11.3301 27.9971 11.3301ZM27.9971 18.0001C28.8416 17.9997 29.6827 18.1061 30.5005 18.3167V20.9284C28.8967 20.361 27.1477 20.3557 25.5405 20.9133C23.9334 21.471 22.5635 22.5584 21.6558 23.9972C20.7481 25.436 20.3566 27.1406 20.5453 28.8313C20.7341 30.5219 21.4921 32.0982 22.6948 33.3013C23.8974 34.5044 25.4734 35.2629 27.164 35.4523C28.8546 35.6417 30.5593 35.2508 31.9985 34.3436C33.4376 33.4364 34.5255 32.067 35.0837 30.46C35.642 28.853 35.6373 27.104 35.0705 25.5001H37.6821C38.2035 27.5194 38.0805 29.6513 37.3303 31.5972C36.5801 33.5432 35.2402 35.2059 33.4982 36.3527C31.7562 37.4994 29.6993 38.0729 27.6152 37.9927C25.5312 37.9125 23.5244 37.1827 21.8757 35.9055C20.2269 34.6283 19.0188 32.8676 18.4203 30.8697C17.8218 28.8719 17.8629 26.7369 18.5379 24.7635C19.2129 22.7902 20.488 21.0773 22.1847 19.8646C23.8815 18.6518 25.9149 17.9999 28.0005 18.0001H27.9971ZM31.3305 28.0001C31.3303 28.7165 31.0992 29.4138 30.6716 29.9886C30.2439 30.5634 29.6425 30.9852 28.9564 31.1913C28.2702 31.3975 27.5359 31.3771 26.8623 31.1332C26.1887 30.8893 25.6115 30.4348 25.2165 29.8372C24.8214 29.2395 24.6294 28.5305 24.6689 27.8152C24.7084 27.0998 24.9773 26.4162 25.4358 25.8657C25.8944 25.3152 26.518 24.9271 27.2144 24.7589C27.9108 24.5906 28.6429 24.6513 29.3021 24.9317L32.1688 22.0651L32.1671 16.7501C32.1674 16.4187 32.2993 16.1009 32.5338 15.8667L36.7005 11.7001C36.8753 11.5255 37.0979 11.4066 37.3403 11.3585C37.5826 11.3103 37.8337 11.3351 38.062 11.4296C38.2903 11.5241 38.4854 11.6842 38.6228 11.8895C38.7602 12.0949 38.8336 12.3363 38.8338 12.5834V17.1667H43.4171C43.6642 17.167 43.9057 17.2404 44.111 17.3778C44.3164 17.5151 44.4764 17.7103 44.571 17.9385C44.6655 18.1668 44.6902 18.418 44.6421 18.6603C44.5939 18.9026 44.4751 19.1253 44.3005 19.3001L40.1338 23.4667C39.8996 23.7012 39.5819 23.8331 39.2505 23.8334H33.9338L31.0671 26.7001C31.2371 27.1001 31.3305 27.5384 31.3305 28.0001ZM38.7321 21.3334L40.3988 19.6667H37.5821C37.2506 19.6667 36.9327 19.535 36.6983 19.3006C36.4638 19.0662 36.3321 18.7483 36.3321 18.4167V15.6001L34.6671 17.2667V21.2351C34.7019 21.2664 34.7347 21.2998 34.7655 21.3351H38.7321V21.3334Z" fill="#E4FF71" stroke="#128901"/>
<defs>
<radialGradient id="paint0_radial_51_352" cx="0" cy="0" r="1" gradientUnits="userSpaceOnUse" gradientTransform="translate(19.799 47.799) rotate(90) scale(19.799 21.0571)">
<stop offset="0.166567" stop-color="#22F303"/>
<stop offset="0.502539" stop-color="#118600"/>
<stop offset="0.504809" stop-color="#1CBF04"/>
<stop offset="0.798395" stop-color="#1CBF04"/>
<stop offset="0.799901" stop-color="#22F303"/>
</radialGradient>
</defs>
</svg>
