<svg width="56" height="56" viewBox="0 0 56 56" fill="none" xmlns="http://www.w3.org/2000/svg">
<rect x="0.707107" y="28" width="38.598" height="38.598" rx="3.5" transform="rotate(-45 0.707107 28)" fill="url(#paint0_radial_51_360)" stroke="#710000"/>
<path d="M22.1267 22.2085C20.591 23.7626 19.7345 25.8624 19.7452 28.0472C19.7559 30.2321 20.6329 32.3234 22.1837 33.8625C23.7345 35.4015 25.8325 36.2624 28.0173 36.2564C30.2022 36.2505 32.2954 35.378 33.8378 33.8305M36.1097 29.5225C36.3578 28.2025 36.2799 26.8419 35.8827 25.5589C35.4855 24.2758 34.781 23.1092 33.8305 22.1603C32.8799 21.2114 31.7121 20.5089 30.4283 20.1139C29.1446 19.7189 27.7839 19.6433 26.4643 19.8936" stroke="white" stroke-width="2" stroke-linecap="round" stroke-linejoin="round"/>
<path d="M17.5215 17.4784C14.7302 20.2566 13.1568 24.0299 13.1475 27.9682C13.1382 31.9065 14.6938 35.6872 17.472 38.4786C20.2502 41.2699 24.0235 42.8433 27.9618 42.8526C31.9001 42.8618 35.6808 41.3063 38.4722 38.528M41.249 34.7118C42.6646 31.9223 43.1631 28.7569 42.6735 25.6673C42.1838 22.5777 40.7309 19.7217 38.522 17.5066C36.3132 15.2915 33.4612 13.8306 30.373 13.3323C27.2848 12.8339 24.1181 13.3235 21.3246 14.7313M13.1509 13.1507L42.8494 42.8492" stroke="#FFC641" stroke-width="2" stroke-linecap="round" stroke-linejoin="round"/>
<defs>
<radialGradient id="paint0_radial_51_360" cx="0" cy="0" r="1" gradientUnits="userSpaceOnUse" gradientTransform="translate(19.799 47.799) rotate(90.0001) scale(19.799 19.3713)">
<stop offset="0.166567" stop-color="#EE8F00"/>
<stop offset="0.166667" stop-color="#BE0000"/>
<stop offset="0.502539" stop-color="#C80000"/>
<stop offset="0.798395" stop-color="#FF7A00"/>
<stop offset="0.798495" stop-color="#C70000"/>
</radialGradient>
</defs>
</svg>
